<svg enable-background="new 0 0 297.324 44.571" height="44.571" viewBox="0 0 297.324 44.571" width="297.324" xmlns="http://www.w3.org/2000/svg"><g fill="#fff"><path d="m208.623 13.518c-.105-.059-.236-.081-.358-.094-.161-.017-.325-.007-.488-.014-.778-.037-1.555-.103-2.333-.105-.717-.002-1.434.068-2.152.101-.795.036-1.587.135-2.387.059-.405-.039-.784.267-.883.693-.091.392-.157.795-.184 1.196-.057.867-.087 1.736-.117 2.605-.013.367.002.736.006 1.104.003.247.01.494.012.741.004.682.002 1.364.009 2.046.003.326.033.651.03.977-.01.99-.029 1.98-.045 2.97-.017.99-.026 1.98-.055 2.97-.026.905-.078 1.808-.111 2.713-.013.355.04.719-.019 1.065-.072.418.026.754.338 1.006.19.154.431.283.667.333.524.112 1.06.173 1.593.241.141.018.29-.001.431-.027.386-.069.551-.238.581-.628.03-.391.049-.784.041-1.176-.039-2.071-.095-4.141.008-6.212.066-1.339.107-2.679.161-4.018.007-.161-.026-.372.061-.469s.3-.084.459-.112c.856-.147 1.713-.295 2.57-.436.226-.037.456-.048.696-.072.077-.023.167-.04.249-.076.15-.064.246-.178.245-.348-.001-.18-.104-.299-.268-.347-.125-.036-.262-.059-.39-.048-.343.031-.682.093-1.025.126-.787.075-1.574.14-2.362.21-.13.012-.185-.037-.178-.175.042-.784.075-1.568.116-2.352.057-1.085.125-2.169.177-3.255.014-.288-.004-.291.291-.312.566-.041 1.137-.046 1.697-.127.7-.1 1.396-.079 2.096-.057.205.006.41.03.615.028.211-.002.356-.112.402-.277.044-.159-.023-.35-.196-.447z"/><path d="m255.422 16.25c-.296.023-.592.058-.888.066-.348.009-.515-.154-.533-.505-.01-.193.011-.388.004-.582-.011-.279-.029-.558-.054-.837-.027-.306.14-.553.437-.624.044-.011.09-.024.135-.022.59.026 1.187-.084 1.771.081.665.187 1.334.116 2.007.055.452-.041.91-.028 1.365-.038.137-.003.274.008.41-.001.957-.06 1.914-.13 2.872-.182.387-.021.776-.01 1.163-.004.267.004.431.152.453.44.033.437.042.877.057 1.316.008.245.004.49.013.735.015.392-.181.593-.571.562-.391-.032-.782-.073-1.173-.109-.068-.006-.137-.011-.205-.014-.672-.028-1.344-.054-2.016-.084-.142-.006-.285-.018-.426-.04-.12-.019-.165.017-.166.14-.005.622-.021 1.244-.023 1.866-.009 2.209-.003 4.417-.184 6.624-.111 1.358-.099 2.727-.13 4.091-.028 1.244-.039 2.489-.057 3.733-.001.057-.002.114-.008.171-.031.294-.203.463-.5.449-.553-.026-1.106-.064-1.658-.109-.245-.02-.392-.173-.411-.428-.019-.256-.017-.513-.012-.77.036-1.678.043-3.358.122-5.034.096-2.048.23-4.094.217-6.145-.009-1.405-.038-2.809-.057-4.214-.002-.137-.004-.275.01-.41.01-.101-.01-.145-.12-.152-.613-.043-1.227-.12-1.844-.025z"/><path d="m225.113 13.035c-.192.004-.385.059-.575.104-.262.062-.517.171-.781.2-.493.054-.801.406-.739.887.035.275.073.554.065.831-.038 1.293-.105 2.585-.135 3.877-.043 1.838-.065 3.676-.093 5.515-.024 1.607-.057 3.214-.063 4.821-.004 1.138.03 2.275.049 3.413.002.118.017.236.034.353.039.269.199.456.47.502.298.051.604.066.907.077.225.008.452-.02.678-.024.845-.015 1.69-.024 2.534-.042.119-.003.245-.032.355-.078.156-.064.235-.195.214-.36-.02-.165-.128-.267-.292-.3-.082-.017-.17-.011-.255-.01-.476.007-.951.016-1.441.025 0-.142-.005-.271.002-.399.024-.409.081-.818.074-1.225-.012-.693-.077-1.384-.095-2.076-.046-1.748-.083-3.496-.114-5.244-.036-2.032-.056-4.065-.092-6.098-.021-1.156-.058-2.311.075-3.466.026-.221.005-.451-.03-.672-.058-.375-.358-.619-.752-.611z"/><path d="m139.286 21.038c.073-.142.147-.284.22-.427.333-.645.73-1.226 1.24-1.69.505-.458 1.066-.683 1.716-.587.584.086.939.463 1.111 1.102.182.674.174 1.365.11 2.056-.17 1.84-.354 3.678-.514 5.519-.041.472-.037.953-.012 1.427.022.435.239.595.593.45.206-.084.401-.226.582-.374.398-.327.776-.686 1.178-1.005.099-.078.288-.122.38-.063.154.1.071.297.005.449-.312.724-.665 1.409-1.286 1.835-.408.28-.834.451-1.319.358-.585-.113-.966-.494-1.076-1.173-.07-.436-.107-.895-.077-1.336.078-1.173.2-2.343.305-3.514.076-.846.151-1.692.226-2.538.006-.071.001-.144.001-.271-.073.076-.121.117-.159.167-.682.901-1.358 1.808-2.044 2.705-.44.574-.816 1.19-1.078 1.905-.38 1.038-.793 2.059-1.169 3.098-.126.349-.202.728-.267 1.101-.076.431-.251.666-.541.645-.343-.025-.661-.367-.674-.74-.005-.129.012-.261.03-.39.077-.553.159-1.106.238-1.659.014-.097.02-.196-.019-.321-.051.076-.098.157-.155.228-.49.611-.954 1.258-1.485 1.817-.317.334-.72.595-1.122.769-.778.336-1.448-.086-1.674-1.02-.125-.519-.178-1.062-.26-1.595-.021-.134-.029-.27-.099-.419-.04.084-.083.168-.121.253-.414.92-.87 1.814-1.483 2.568-.297.366-.649.695-1.024.943-.567.376-1.226.21-1.686-.336-.364-.432-.595-.964-.678-1.55-.111-.781-.207-1.574-.22-2.363-.04-2.377.056-4.747.411-7.095.037-.246.047-.501.049-.751.003-.57.355-.876.813-.692.563.226.728.458.741 1.162.008.428-.03.858-.061 1.286-.156 2.155-.268 4.314.031 6.46.108.776.367 1.524.558 2.284.011.042.038.078.077.156.106-.123.205-.224.29-.34.633-.864 1.132-1.83 1.534-2.862.475-1.217.872-2.464 1.139-3.772.239-1.171.548-2.323.828-3.483.024-.098.055-.197.099-.284.121-.239.3-.359.54-.31.222.045.392.265.398.556.004.192-.028.391-.071.578-.289 1.254-.581 2.507-.879 3.757-.424 1.777-.321 3.555-.011 5.331.084.482.253.576.631.341.271-.168.529-.383.76-.62 1.479-1.518 2.335-3.476 2.836-5.669.214-.938.386-1.89.577-2.836.026-.127.048-.257.086-.379.108-.34.352-.514.609-.446.256.068.416.347.389.709-.014.195-.053.387-.08.581-.014.1-.027.2-.04.299.019.005.036.01.053.015z"/><path d="m162.96 21.911c-.126.099-.257.191-.377.298-1.335 1.178-2.54 2.496-3.657 3.9-.477.599-1 1.127-1.62 1.554-.674.465-1.326.967-2.01 1.412-.408.265-.865.446-1.291.682-.092.051-.192.169-.208.272-.225 1.408-.424 2.822-.656 4.229-.09.548-.242 1.085-.376 1.624-.034.134-.082.293-.175.375-.15.132-.335.276-.519.297-.444.052-.979-.561-.943-1.03.263-3.501.518-7.003.795-10.504.112-1.415.213-2.836.426-4.235.176-1.154.733-2.118 1.713-2.755.499-.324 1.023-.365 1.578-.218.974.258 1.674.894 2.262 1.735.91 1.302 1.091 2.756.941 4.299-.015.156-.028.312.016.497.074-.074.149-.147.221-.223.797-.827 1.583-1.666 2.392-2.478 1.084-1.088 2.41-1.746 3.793-2.293.082-.033.176-.061.262-.054.611.047 1.229.059 1.831.168 1.156.21 1.861.959 2.139 2.162.085.369.171.449.505.295.464-.213.908-.48 1.339-.762.486-.318.945-.681 1.419-1.019.126-.089.258-.181.401-.225.104-.032.274-.031.334.036s.068.269.014.351c-.297.459-.579.94-.943 1.335-.538.586-1.196 1.02-1.919 1.326-.214.09-.445.17-.672.182-.261.014-.321.131-.341.379-.118 1.458-.452 2.842-1.346 4.001-.309.401-.648.783-1.014 1.126-1.126 1.057-3.556 1.165-4.65-.828-.627-1.142-.822-2.304-.472-3.545.196-.694.482-1.36.731-2.037.035-.095.088-.182.132-.273-.019-.019-.037-.038-.055-.056zm-9.014 6.221c.065.005.093.014.116.007 2.107-.596 3.576-2.558 3.685-4.863.061-1.301-.225-2.436-1.105-3.413-.447-.496-.924-.68-1.533-.604-.226.028-.381.092-.31.389.025.106.002.226-.01.338-.258 2.425-.519 4.85-.776 7.275-.032.289-.046.579-.067.871zm10.431-3.11c.071.301.12.611.218.902.253.75.745 1.326 1.262 1.887.2.217.36.2.547.03.203-.184.411-.363.599-.564 1.007-1.08 1.391-2.433 1.516-3.903.022-.264-.03-.381-.292-.452-.917-.247-1.808-.58-2.576-1.189-.218-.173-.32-.13-.459.09-.612.968-.796 2.049-.815 3.199zm3.95-3.354c-.063-.144-.103-.258-.16-.362-.266-.484-.725-.605-1.194-.722-.261-.066-.41.01-.474.279.289.291 1.351.769 1.828.805z"/><path d="m175.007 17.25c.04.482-.086.919-.318 1.324-.163.285-.42.28-.552-.021-.093-.213-.153-.445-.203-.674-.085-.395-.15-.794-.225-1.191-.054-.288.04-.542.246-.663.216-.126.49-.071.683.152.262.302.335.682.369 1.073z"/><path d="m186.984 25.012c-.048.102-.095.205-.145.305-.489.979-.948 1.976-1.48 2.931-.298.536-.704 1.016-1.092 1.496-.171.212-.403.387-.636.534-.885.559-1.924.239-2.268-.748-.173-.497-.23-1.051-.251-1.582-.031-.788.018-1.579.032-2.369.002-.089 0-.177-.05-.284-.04.09-.076.183-.121.271-.508 1.009-.985 2.035-1.542 3.017-.255.45-.636.846-1.022 1.198-.224.205-.559.336-.865.394-.849.161-1.469-.235-1.698-1.068-.345-1.261-.268-2.534.029-3.786.335-1.414.863-2.758 1.739-3.94.175-.237.377-.459.593-.66.87-.805 2.036-.886 3.021-.226.043.029.09.053.168.098.04-.113.084-.207.108-.307.355-1.493.709-2.986 1.06-4.48.156-.664.305-1.33.462-1.994.113-.48.356-.705.705-.664.471.055.798.369.774.841-.033.634-.103 1.27-.203 1.897-.209 1.312-.489 2.613-.661 3.929-.133 1.021-.176 2.056-.205 3.087-.041 1.426-.05 2.853-.033 4.279.006.512.128 1.022.206 1.595.097-.11.17-.172.217-.25.392-.653.846-1.279 1.156-1.97.947-2.112 1.841-4.248 2.747-6.378.119-.279.178-.584.277-.872.052-.151.111-.307.202-.436.176-.251.438-.341.735-.285.29.055.475.262.494.537.029.417.024.841-.019 1.256-.177 1.677-.381 3.351-.56 5.028-.104.975.275 1.785.903 2.507.286.329.65.472 1.063.507.097.008.222-.066.3-.138.508-.468 1.007-.947 1.51-1.42.157-.147.307-.307.484-.426.096-.064.241-.054.364-.077.022.122.101.272.056.362-.27.545-.512 1.117-.87 1.601-.539.728-1.263 1.27-2.078 1.676-.152.076-.313.138-.475.19-1.037.333-1.918-.006-2.452-.955-.442-.785-.609-1.646-.631-2.536-.014-.554.009-1.109.016-1.664-.022-.007-.043-.014-.064-.021zm-10.212 3.178c.012.001.024.001.036.002.027.15.048.301.084.449.109.45.382.561.768.294.174-.12.334-.275.464-.443.197-.254.373-.527.54-.802.852-1.405 1.448-2.922 1.95-4.479.138-.429.294-.836.172-1.324-.082-.328-.214-.519-.507-.613-.447-.143-.875-.1-1.234.227-.191.174-.382.36-.527.572-.937 1.361-1.52 2.862-1.694 4.508-.059.531-.038 1.072-.052 1.609z"/><path d="m188.676 15.275c-.007-.636.455-1.161 1.023-1.165.535-.003.925.427.929 1.023.004.683-.417 1.191-.982 1.187-.536-.004-.963-.464-.97-1.045z"/><path d="m246.2 31.317c-1.626-.278-3.418.258-4.847-.681-1.185-.778-1.778-2.373-2.104-3.91-.198-.931-.328-1.889-.292-2.848.097-2.588 1.501-5.06 3.513-6.185.654-.365 1.371-.603 1.943-1.121.573-.518.968-1.445.665-2.208l-.028-.616c-2.198.377-4.276 1.661-5.776 3.571-1.713 2.181-2.642 5.123-2.725 8.067-.022.789.014 1.584.168 2.351.378 1.876 1.471 3.508 2.872 4.535 1.402 1.026 3.09 1.469 4.75 1.41.587-.021 1.211-.121 1.661-.562.452-.44.618-1.326.2-1.803z"/><path d="m233.511 21.829c-.171 1.612-.017 3.295-.005 4.975.002.336.012.673.008 1.009-.007.617-.012 1.233.021 1.85.032.598.002 1.193-.071 1.788-.068.553-.095 1.114-.135 1.672-.039.536-.209.733-.665.742-.375.008-.733-.094-1.073-.277-.354-.191-.542-.508-.549-.971-.012-.766-.045-1.532-.016-2.298.033-.896.042-1.792.024-2.69-.027-1.364-.047-2.729.026-4.092.035-.653.006-1.307-.014-1.962-.039-1.275.071-2.538.221-3.797.026-.221.059-.448.045-.668-.054-.879-.035-1.755.017-2.632.035-.591.266-.874.78-.895.336-.014.673-.043 1.009-.028.459.021.67.29.664.823-.003.261-.031.522-.057.781-.169 1.654-.182 3.316-.176 4.98-.001.541-.035 1.083-.054 1.69z"/><path d="m234.044 10.144c-.025.708-.604 1.397-1.21 1.417-.328.011-.602-.145-.744-.509-.085-.22-.172-.458-.184-.693-.036-.696.142-1.33.533-1.857.218-.294.525-.332.837-.165.275.148.464.398.589.714.139.347.181.716.179 1.093z"/><path d="m251.34 31.446c.067-.603.087-1.203.043-1.802-.046-.618-.052-1.237-.056-1.858-.002-.338-.018-.676-.027-1.013-.043-1.688-.236-3.369-.085-5 .01-.612.035-1.158.023-1.702-.037-1.672-.053-3.344.096-5.017.023-.262.048-.527.047-.789-.004-.536-.231-.792-.717-.783-.355.007-.711.058-1.066.094-.543.055-.782.355-.808.951-.039.885-.043 1.766.03 2.646.018.221-.012.451-.036.675-.136 1.275-.229 2.552-.164 3.831.033.656.075 1.312.05 1.971-.052 1.375-.006 2.745.047 4.114.035.901.042 1.802.024 2.705-.016.772.032 1.54.059 2.309.016.465.22.771.598.94.363.162.743.241 1.14.208.481-.04.658-.249.69-.79.032-.564.05-1.13.112-1.69z"/><path d="m249.765 11.431c.641-.059 1.24-.79 1.254-1.503-.005-.379-.056-.747-.208-1.087-.139-.309-.343-.548-.636-.679-.332-.148-.656-.089-.882.22-.404.555-.581 1.204-.53 1.902.017.235.113.469.207.684.156.357.449.495.795.463z"/><path d="m274.161 33.362c.045-.42.013-.84-.024-1.261-.049-.559-.086-1.12-.138-1.679-.094-.998-.08-2.007-.282-2.994-.235-1.146-.307-2.309-.357-3.469-.097-2.226-.25-4.444-.627-6.645-.166-.972-.477-1.906-.7-2.863-.055-.237-.174-.446-.306-.648-.29-.446-.626-.711-1.207-.651-.634.066-1.116.295-1.415.873-.236.457-.489.91-.675 1.389-.583 1.5-1.082 3.033-1.578 4.567-.073.227-.125.462-.171.697-.296 1.508-.583 3.018-.936 4.513-.504 2.136-.928 4.29-1.102 6.492-.022.283-.04.56.028.836.104.427.319.793.712.985.37.181.776.275 1.182.315.501.05.816-.173.968-.666.076-.245.117-.505.15-.762.238-1.844.457-3.689.81-5.514.213-1.098.49-2.179.712-3.275.054-.265.198-.358.441-.37.465-.023.929-.091 1.394-.083 1.152.018 1.019-.184 1.117 1.05.129 1.64.294 3.276.38 4.92.162 1.294.323 2.589.486 3.883.018.139.038.279.073.415.098.378.315.568.602.538.269-.028.423-.218.463-.593zm-2.322-11.266c-.743.018-1.492.036-2.277.056.275-1.885.932-3.61 1.351-5.438.081.111.007.01.08.038.017.007.038.022.044.038.038.092.084.182.106.278.156.682.35 1.359.45 2.049.138.949.205 1.908.299 2.863.004.033-.031.07-.053.116z"/><path d="m270.406 11.48c.21-.326.135-.706-.16-.947-.764-.621-1.619-1.125-2.524-1.512-.327-.14-.764.069-.87.406-.115.367.055.72.405.87.205.087.405.183.604.281.012.006.019.01.026.014.013.007.026.014.039.021.045.024.09.049.135.074.097.054.193.111.288.168.387.235.757.498 1.109.784.277.225.758.136.948-.159z"/><path d="m38.005 30.22c-.039-.048-.065-.107-.096-.162-.276-.49-.55-.598-1.038-.405-.088.035-.176.074-.26.119-.756.41-1.542.575-2.391.274-.111-.039-.231-.053-.347-.067-.756-.096-1.42-.439-1.996-.974-1.055-.979-1.527-2.291-1.708-3.703-.168-1.314.174-2.557.624-3.745.297-.785.734-1.481 1.255-2.118.836-1.022 1.74-1.952 2.907-2.524.947-.464 1.321-1.54 1.229-2.6-.022-.252-.149-.421-.366-.529-.452-.225-.892-.157-1.326.003-.301.111-.59.26-.887.381-1.326.54-2.547 1.252-3.574 2.321-.844.878-1.524 1.89-2.089 2.99-.5.973-.807 2.04-1.063 3.124-.065.29-.134.579-.193.871-.282 1.391-.23 2.787.063 4.19.166.795.54 1.485.943 2.162.521.874 1.176 1.611 1.948 2.233 1.086.874 2.292 1.431 3.591 1.782.668.18 1.318.217 1.976.059.724-.173 1.395-.475 2.012-.909.43-.303.726-.721.939-1.224.233-.545.245-1.06-.153-1.549z"/><path d="m80.257 29.549c-.044-.579-.05-1.158-.053-1.738-.002-.316-.017-.632-.025-.948-.041-1.579-.225-3.156-.081-4.677.009-.572.033-1.081.022-1.59-.035-1.564-.051-3.127.09-4.687.022-.245.046-.491.044-.736-.004-.502-.22-.748-.682-.754-.338-.005-.676.033-1.014.056-.516.035-.743.308-.768.865-.037.826-.041 1.649.029 2.474.018.207-.011.421-.034.63-.129 1.188-.218 2.378-.156 3.576.032.614.072 1.229.048 1.844-.049 1.283-.006 2.566.045 3.847.033.844.041 1.686.023 2.529-.015.721.031 1.44.056 2.16.015.435.209.728.569.897.345.163.706.248 1.083.229.458-.022.625-.212.655-.717.031-.526.048-1.054.107-1.576.065-.563.084-1.123.042-1.684z"/><path d="m78.483 12.098c.148.338.427.476.756.456.609-.036 1.178-.701 1.191-1.367-.005-.355-.054-.7-.198-1.022-.132-.293-.326-.523-.605-.654-.316-.148-.624-.103-.838.179-.384.507-.552 1.108-.504 1.761.017.221.108.443.198.647z"/><path d="m98.64 14.258c-.347-.011-.694.022-1.041.039-.53.026-.766.303-.797.874-.046.847-.059 1.693.005 2.541.016.213-.016.432-.041.646-.144 1.218-.247 2.438-.196 3.669.026.631.061 1.263.031 1.894-.063 1.317-.032 2.634.007 3.951.026.867.025 1.732-.002 2.598-.023.74.017 1.479.036 2.219.011.447.208.751.575.931.353.173.723.267 1.11.255.47-.015.644-.207.68-.725.037-.539.06-1.081.126-1.616.071-.575.096-1.15.059-1.727-.039-.595-.039-1.19-.037-1.786.001-.325-.011-.649-.016-.974-.026-1.622-.199-3.245-.036-4.804.015-.587.045-1.11.039-1.633-.02-1.607-.02-3.212.14-4.811.025-.251.052-.503.053-.755-.001-.514-.221-.771-.695-.786z"/><path d="m99.361 9.902c-.132-.304-.329-.543-.614-.682-.323-.158-.639-.117-.862.169-.4.513-.578 1.128-.535 1.8.015.226.106.456.196.667.149.349.433.496.772.482.625-.026 1.217-.699 1.237-1.382-.002-.366-.049-.721-.194-1.054z"/><path d="m118.823 13.824c-.348.002-.696.047-1.044.078-.531.046-.76.332-.774.906-.021.852-.008 1.701.081 2.55.022.213-.003.434-.022.65-.108 1.227-.175 2.456-.087 3.689.045.633.099 1.265.087 1.9-.024 1.324.047 2.645.126 3.965.052.869.077 1.737.076 2.607-.001.744.061 1.484.102 2.226.025.449.231.746.605.913.359.161.733.241 1.122.215.471-.032.64-.231.661-.752.021-.543.028-1.087.078-1.627.054-.58.062-1.158.007-1.736-.057-.596-.075-1.193-.091-1.791-.009-.326-.031-.651-.046-.977-.074-1.627-.297-3.249-.18-4.82-.002-.589.012-1.116-.01-1.64-.068-1.612-.116-3.223-.003-4.833.018-.253.037-.507.03-.76-.014-.516-.241-.766-.718-.763z"/><path d="m119.416 9.425c-.142-.3-.346-.533-.637-.662-.329-.147-.645-.094-.86.201-.386.53-.546 1.153-.483 1.826.021.227.12.454.217.662.16.345.45.482.789.455.627-.049 1.2-.746 1.2-1.433-.013-.365-.07-.72-.226-1.049z"/><path d="m75.652 21.581c-.1-.587-.199-1.17-.429-1.715-.551-1.463-1.292-2.77-2.305-3.869-.813-.883-1.686-1.621-2.78-1.911-.075-.02-.151-.044-.221-.081-.88-.463-1.811-.596-2.748-.688-.384-.038-.766-.027-1.146.031-.488.075-.802.38-.947.931-.059.224-.105.446-.094.683.019.413.047.826.053 1.239.008.575-.02 1.149.002 1.723.045 1.172-.021 2.333-.111 3.493-.021.267-.045.536-.04.805.033 1.78-.045 3.553-.067 5.33-.004.323-.014.648.011.969.105 1.327.228 2.653.333 3.98.027.345.171.572.426.723.312.185.645.248.985.258 1.208.036 2.367-.257 3.519-.598.206-.061.41-.139.619-.184.596-.126 1.127-.404 1.615-.814 1.358-1.14 2.284-2.666 2.858-4.493.587-1.868.811-3.799.467-5.812zm-2.692 6.238c-.569 1.152-1.298 2.123-2.226 2.891-.339.28-.704.479-1.108.594-.251.071-.498.165-.751.227-.276.068-.332.019-.351-.306-.04-.682-.086-1.369-.035-2.046.153-2.038.143-4.083.067-6.132-.037-.99.006-1.974.102-2.953.065-.66.071-1.323.03-1.989-.036-.576.04-1.137.112-1.756.304.088.585.171.866.251.905.256 1.708.743 2.389 1.51.235.265.495.499.725.773.425.505.684 1.124.946 1.743.085.199.103.418.118.632.085 1.186.123 2.376-.009 3.549-.12 1.069-.413 2.077-.875 3.012z"/><path d="m113.136 20.489c.222.538.313 1.112.406 1.691.319 1.983.082 3.879-.513 5.709-.581 1.789-1.506 3.279-2.851 4.386-.484.398-1.008.665-1.595.783-.206.041-.407.116-.61.174-1.135.322-2.278.598-3.465.55-.334-.014-.661-.079-.966-.264-.25-.151-.389-.376-.412-.716-.092-1.306-.2-2.61-.291-3.916-.022-.316-.009-.636-.002-.953.038-1.746.131-3.489.115-5.239-.002-.264.024-.528.047-.791.098-1.14.175-2.28.141-3.433-.017-.565.017-1.129.014-1.694-.002-.406-.025-.812-.04-1.218-.009-.234.039-.452.099-.671.148-.54.459-.836.939-.905.374-.054.75-.06 1.127-.019.92.101 1.834.242 2.695.706.069.037.143.062.217.082 1.073.298 1.924 1.033 2.715 1.909.986 1.093 1.702 2.385 2.23 3.829zm-6.281-3.526c-.076.607-.156 1.158-.126 1.725.035.655.022 1.306-.048 1.955-.103.961-.154 1.928-.127 2.902.056 2.015.046 4.025-.122 6.027-.056.666-.017 1.341.016 2.012.016.319.07.368.342.304.249-.058.492-.148.74-.215.398-.109.759-.3 1.095-.572.919-.745 1.645-1.692 2.215-2.818.462-.913.759-1.901.887-2.951.141-1.152.114-2.321.042-3.489-.013-.211-.029-.426-.11-.623-.252-.611-.501-1.223-.914-1.724-.224-.272-.477-.504-.706-.767-.663-.761-1.447-1.248-2.334-1.51-.277-.081-.552-.166-.85-.256z"/><path d="m60.735 18.64c-.096-1.088.159-2.168.004-3.266-.059-.417.019-.852.049-1.277.018-.257.098-.333.362-.329.276.004.553.044.866.071.089.144.084.332.087.515.003.205.007.412-.019.614-.125.971-.059 1.942.018 2.916.161 2.048.245 4.098.271 6.15.021 1.709.037 3.418.047 5.127.005.939-.008 1.879-.009 2.818 0 .29.015.581.02.872.004.222.02.446.003.666-.022.286-.114.365-.391.361-.243-.003-.485-.032-.73-.008-.198.02-.322-.096-.389-.281-.049-.133-.05-.267-.055-.404-.061-1.626.034-3.244.143-4.862.052-.767.042-1.536-.001-2.305-.023-.409-.04-.823-.007-1.23.076-.938-.041-1.881.038-2.818.01-.118-.002-.239-.003-.359-.002-.178-.054-.324-.205-.451-.4-.336-.761-.716-1.186-1.025-.566-.41-1.086-.874-1.614-1.33-.232-.201-.464-.405-.792-.597-.027.298-.062.53-.066.762-.02 1.044-.177 2.074-.249 3.113-.04.579-.1 1.157-.098 1.738.002.923-.126 1.839-.103 2.764.042 1.694-.12 3.379-.158 5.07-.01.444-.02.887.016 1.332.053.655-.126.82-.807.787-.47-.023-.942-.046-1.396-.194-.548-.179-.653-.326-.663-.9-.036-2.137-.049-4.273-.116-6.409-.051-1.608-.066-3.216.018-4.818.074-1.415.228-2.824.35-4.236.03-.341.032-.678-.006-1.022-.041-.373-.044-.752-.03-1.126.014-.376.292-.64.477-.938.069-.111.244-.114.387-.1.262.025.52.002.781-.013.338-.02.643.083.907.325.784.719 1.558 1.443 2.259 2.244.584.666 1.227 1.283 1.792 1.967.044.054.095.097.198.086z"/><path d="m51.144 23.028c.012-.561.005-1.124.041-1.684.071-1.111-.044-2.195-.319-3.253-.244-.936-.531-1.853-1.216-2.519-.94-.914-1.981-1.61-3.221-1.89-.37-.084-.727-.105-1.107-.024-.378.081-.732.207-1.092.361-1.117.477-2.067 1.161-2.69 2.365-.613 1.185-1.07 2.434-1.415 3.743-.477 1.811-.673 3.666-.698 5.536-.027 1.984.511 3.819 1.321 5.549.54 1.154 1.402 1.94 2.432 2.495.258.139.555.236.839.254.612.038 1.229.024 1.843.006.186-.005.388-.052.552-.148.502-.295.999-.605 1.477-.947.212-.152.389-.381.555-.601 1.046-1.383 1.655-3.014 2.078-4.734.363-1.476.538-2.986.62-4.509zm-5.005 9.003c-2.916-4.854-3.994-11.596-.408-16.47 1.173-.423 2.629 1.421 3.153 2.395.809 1.506.97 3.366.88 5.104-.095 1.816-.578 3.727-1.181 5.417-.514 1.439-1.278 2.737-2.444 3.554z"/><path d="m94.084 14.104c-.002-.001-.004-.001-.006-.002-.034-.093-.068-.187-.102-.28-.096-.263-.456-.272-.583-.038-1.058 1.952-1.79 4.084-2.523 6.207-.686 1.986-1.372 3.971-2.059 5.957-1.037-4.004-2.226-7.955-3.578-11.837-.041-.117-.169-.204-.278-.208-.726-.029-1.441.036-2.152.189-.082.003-.164.009-.246.011-.476.014-.722.412-.531.907.085.221.158.448.225.677.126.437.239.878.365 1.315.062.215.152.42.213.636.345 1.232.694 2.462 1.024 3.699.546 2.048 1.087 4.096 1.847 6.063.226.586.352 1.22.532 1.829.221.753.449 1.503.676 2.254.134.443.267.887.411 1.327.089.272.249.471.527.484.267.013.435-.161.557-.41.113-.232.222-.467.342-.695.313-.596.57-1.216.72-1.891.067-.3.157-.595.253-.885.494-1.504 1.001-3.002 1.488-4.508.849-2.63 1.687-5.265 2.529-7.898.164-.512.333-1.023.48-1.541.075-.263.127-.54.151-.814.022-.279-.096-.473-.282-.548z"/><path d="m217.661 12.825c-.174-.06-.352-.043-.534-.031-1.356.09-2.708.246-4.068.285-.46.013-.913.1-1.353.245-.573.189-.739.384-.767.963-.032.656-.009 1.317-.09 1.967-.262 2.119-.223 4.246-.195 6.368.025 1.93.031 3.863.139 5.792.049.867.051 1.737.07 2.606.016.746.217 1.45.505 2.133.195.462.666.738 1.184.716.319-.014.639-.037.958-.051 1.261-.057 2.505-.275 3.76-.387.156-.014.318-.054.46-.117.197-.087.301-.253.283-.469s-.146-.355-.354-.42c-.193-.061-.395-.054-.595-.032-.537.06-1.072.129-1.609.186-.215.023-.431.097-.638.023-.089-.087-.065-.187-.072-.281-.152-2.121-.143-4.247-.139-6.371.003-1.621.099-3.243.156-4.864.009-.268.035-.291.315-.291.18 0 .36.011.539.022.182.011.363.004.531-.068.189-.081.361-.192.363-.419.002-.216-.137-.353-.323-.45-.238-.124-.504-.104-.76-.136-.21-.026-.443.047-.613-.111.106-1.863.011-3.716.247-5.573.361-.112.741-.109 1.118-.135.379-.026.758-.059 1.135-.098.179-.019.354-.057.499-.179.325-.275.251-.684-.152-.823z"/><path d="m13.757 25.098c-1.806-.082-3.69-.165-5.573-.253-.655-.031-1.279-.211-1.895-.419-.213-.072-.382-.214-.399-.461-.017-.248.131-.401.335-.509.669-.351 1.379-.546 2.137-.527 1.051.027 2.102.048 3.151.11 1.608.094 3.213.089 4.82.003 1.018-.055 2.039-.075 3.059-.096.244-.005.499.011.733.078.432.123.689.48.692.883.002.411-.246.757-.685.884-.234.068-.487.087-.732.096-1.855.074-3.708.14-5.643.211z"/><path d="m11.995 13.94c.665.024 1.216.08 1.741.283 1.983.769 3.965 1.537 5.945 2.313.227.089.454.203.65.347.341.25.461.622.348.976-.125.392-.405.609-.807.664-.314.043-.608-.038-.9-.153-1.979-.777-3.962-1.547-5.942-2.322-.549-.215-1.056-.509-1.521-.869-.168-.131-.333-.28-.456-.451-.187-.261-.082-.57.23-.664.262-.079.543-.096.712-.124z"/><path d="m12.985 33.621c-.22 0-.313.005-.406-.001-.306-.018-.654.014-.787-.347-.122-.332.089-.592.283-.834.341-.425.793-.68 1.312-.82.566-.152 1.134-.293 1.702-.439 1.467-.377 2.907-.83 4.243-1.562.22-.12.447-.214.698-.224.366-.015.673.114.858.44.182.321.159.652-.033.966-.166.272-.419.448-.69.602-.592.336-1.217.6-1.852.84-1.446.546-2.943.919-4.445 1.267-.329.076-.672.087-.883.112z"/><path d="m280.705 25.834c-.473.011-.784-.183-.899-.516-.116-.338-.011-.699.287-.947.235-.195.519-.281.811-.353.894-.221 1.803-.36 2.713-.5 1.958-.301 3.875-.762 5.718-1.501.937-.376 1.921-.556 2.909-.715.512-.082.738-.007.784.221.065.325-.18.493-.389.656-.751.588-1.585 1.023-2.472 1.377-2.252.898-4.597 1.414-6.984 1.779-.694.106-1.38.267-2.07.405-.159.031-.315.072-.408.094z"/><path d="m280.53 30.343c.116.017.279.031.437.068 1.897.445 3.801.86 5.665 1.438 1.147.356 2.239.812 3.132 1.652.44.414.565.653.398.872-.264.346-.597.134-.898.077-.665-.127-1.323-.29-1.956-.533-2.054-.792-4.207-1.222-6.337-1.739-.263-.064-.532-.107-.79-.187-.558-.173-.831-.546-.754-.996.078-.452.459-.688 1.103-.652z"/><path d="m286.398 14.356c-.064.547-.45.974-.941 1.321-.906.639-1.801 1.299-2.753 1.873-1.162.7-2.379 1.322-3.572 1.976-.091.05-.188.094-.286.131-.642.243-1.202.113-1.499-.346-.291-.449-.158-.985.378-1.403.216-.169.461-.312.709-.438 1.846-.933 3.614-1.975 5.269-3.184.277-.202.589-.372.905-.518.393-.181.822-.203 1.249-.108.375.085.549.299.541.696z"/></g></svg>